<svg xmlns="http://www.w3.org/2000/svg" width="186" height="32" viewBox="0 0 186 32"><path fill="#4d5ae5" d="M32 16c0 4.418-1.791 8.418-4.686 11.314S20.419 32 16 32c-4.418 0-8.418-1.791-11.314-4.686S0 20.419 0 16c0-4.418 1.791-8.418 4.686-11.314S11.581 0 16 0c4.418 0 8.418 1.791 11.314 4.686S32 11.581 32 16"/><path fill="#f4f4fd" d="M22.387 13.363c-.03-.68-.14-1.148-.298-1.553a3.1 3.1 0 0 0-.74-1.135 3.15 3.15 0 0 0-1.133-.738c-.408-.158-.873-.268-1.553-.298-.685-.033-.903-.04-2.641-.04s-1.955.008-2.638.038c-.68.03-1.148.14-1.553.298-.43.162-.815.413-1.135.74-.325.32-.578.708-.738 1.133-.158.408-.268.873-.298 1.553-.032.685-.04.903-.04 2.641s.008 1.955.038 2.638c.03.68.14 1.148.298 1.553.162.43.415.815.74 1.135.32.325.708.578 1.133.738.408.158.873.268 1.553.298.683.03.9.038 2.638.038s1.955-.007 2.638-.038c.68-.03 1.148-.14 1.553-.298a3.28 3.28 0 0 0 1.873-1.873c.157-.408.268-.873.298-1.553.03-.683.038-.9.038-2.638s-.003-1.955-.033-2.638zm-1.152 5.226c-.028.625-.133.963-.22 1.188-.215.558-.658 1-1.215 1.215-.225.088-.565.193-1.188.22-.675.03-.878.038-2.585.038s-1.913-.007-2.586-.038c-.625-.027-.963-.132-1.188-.22a2 2 0 0 1-.735-.478 2 2 0 0 1-.478-.735c-.088-.225-.193-.565-.22-1.188-.03-.675-.038-.878-.038-2.586s.007-1.913.038-2.585c.027-.625.132-.963.22-1.188.103-.278.265-.53.48-.735a2 2 0 0 1 .735-.478c.225-.088.565-.193 1.188-.22.675-.03.878-.038 2.586-.038 1.71 0 1.913.008 2.586.038.625.028.963.133 1.188.22.277.102.53.265.735.478.212.208.375.458.478.735.088.225.192.565.22 1.188.03.675.038.878.038 2.585s-.008 1.908-.038 2.583z"/><path fill="#f4f4fd" d="M16.024 12.713a3.29 3.29 0 0 0 0 6.576 3.29 3.29 0 0 0 0-6.576m0 5.421a2.133 2.133 0 1 1 0-4.266 2.133 2.133 0 0 1 0 4.266M20.21 12.583a.768.768 0 1 1-1.536 0 .768.768 0 0 1 1.536 0"/><path fill="#4d5ae5" d="M83.2 16c0 4.418-1.791 8.418-4.686 11.314S71.619 32 67.2 32s-8.418-1.791-11.314-4.686C52.991 24.419 51.2 20.419 51.2 16s1.791-8.418 4.686-11.314C58.781 1.791 62.781 0 67.2 0s8.418 1.791 11.314 4.686A15.95 15.95 0 0 1 83.2 16"/><path fill="#f4f4fd" d="M73.6 12.031a5.5 5.5 0 0 1-1.512.414 2.6 2.6 0 0 0 1.154-1.45 5.3 5.3 0 0 1-1.664.635 2.623 2.623 0 0 0-4.539 1.795q-.002.313.061.598a7.43 7.43 0 0 1-5.409-2.745 2.628 2.628 0 0 0 .807 3.507 2.6 2.6 0 0 1-1.186-.323v.029c0 1.275.91 2.334 2.102 2.578a2.6 2.6 0 0 1-.688.086c-.168 0-.338-.01-.497-.045a2.65 2.65 0 0 0 2.452 1.828 5.28 5.28 0 0 1-3.882 1.083 7.4 7.4 0 0 0 4.026 1.178c4.829 0 7.469-4 7.469-7.467a6 6 0 0 0-.01-.339c.521-.37.958-.831 1.315-1.362z"/><path fill="#4d5ae5" d="M134.4 16c0 4.418-1.791 8.418-4.686 11.314S122.819 32 118.4 32c-4.418 0-8.418-1.791-11.314-4.686S102.4 20.419 102.4 16c0-4.418 1.791-8.418 4.686-11.314S113.981 0 118.4 0c4.418 0 8.418 1.791 11.314 4.686S134.4 11.581 134.4 16"/><path fill="#f4f4fd" d="M120.532 11.725h1.168V9.69c-.202-.028-.894-.09-1.702-.09-1.685 0-2.838 1.06-2.838 3.007V14.4h-1.859v2.275h1.859V22.4h2.279v-5.724h1.784l.283-2.275h-2.068v-1.568c.001-.658.178-1.108 1.094-1.108"/><path fill="#4d5ae5" d="M185.6 16c0 4.418-1.791 8.418-4.686 11.314S174.019 32 169.6 32c-4.418 0-8.418-1.791-11.314-4.686S153.6 20.419 153.6 16c0-4.418 1.791-8.418 4.686-11.314S165.181 0 169.6 0c4.418 0 8.418 1.791 11.314 4.686S185.6 11.581 185.6 16"/><path fill="#f4f4fd" d="M175.997 22.4H176v-4.694c0-2.297-.494-4.066-3.179-4.066-1.29 0-2.157.708-2.51 1.38h-.038v-1.165h-2.546v8.546h2.651v-4.232c0-1.114.211-2.191 1.59-2.191 1.36 0 1.38 1.271 1.38 2.263v4.16h2.648zM163.411 13.854h2.654V22.4h-2.654zM164.737 9.6c-.848 0-1.537.689-1.537 1.537s.689 1.552 1.537 1.552c.849 0 1.538-.703 1.538-1.552s-.69-1.537-1.538-1.537"/></svg>