<svg xmlns="http://www.w3.org/2000/svg" style="display:none">

  <!-- FEATURES -->
  <symbol id="icon-antenna" viewBox="0 0 64 64">
    <path d="M32 2C18.7 2 8 12.7 8 26c0 9.4 5.4 17.6 13.2 21.6L18 62h28l-3.2-14.4C50.6 43.6 56 35.4 56 26 56 12.7 45.3 2 32 2z"/>
  </symbol>

  <symbol id="icon-clock" viewBox="0 0 64 64">
    <circle cx="32" cy="32" r="30"/>
    <path d="M32 16v18l12 6"/>
  </symbol>

  <symbol id="icon-diagram" viewBox="0 0 64 64">
    <rect x="6" y="28" width="12" height="30"/>
    <rect x="26" y="18" width="12" height="40"/>
    <rect x="46" y="8" width="12" height="50"/>
  </symbol>

  <symbol id="icon-astronaut" viewBox="0 0 64 64">
    <circle cx="32" cy="20" r="12"/>
    <rect x="16" y="36" width="32" height="22"/>
  </symbol>

  <!-- SOCIAL -->
  <symbol id="icon-instagram" viewBox="0 0 24 24">
    <rect x="2" y="2" width="20" height="20" rx="5"/>
    <circle cx="12" cy="12" r="4"/>
  </symbol>

  <symbol id="icon-twitter" viewBox="0 0 24 24">
    <path d="M23 3c-1 .5-2 .8-3 .9 1-.6 2-1.6 2-2.7-1 .6-2.2 1-3.4 1.2A4.7 4.7 0 0012 6c0 .4 0 .8.1 1.2A13.3 13.3 0 013 4s-4 9 5 13c-1 .3-2 .3-3 0 0 3 2 6 5 7-1 .2-2 .2-3 0 1 3 4 5 7 5A9.4 9.4 0 012 21c3 2 6 3 10 3 12 0 19-10 19-19v-1z"/>
  </symbol>

  <symbol id="icon-facebook" viewBox="0 0 24 24">
    <path d="M14 9h3V6h-3c-2 0-4 2-4 4v3H7v3h3v6h3v-6h3l1-3h-4v-3c0-.6.4-1 1-1z"/>
  </symbol>

  <symbol id="icon-linkedin" viewBox="0 0 24 24">
    <rect x="2" y="2" width="20" height="20"/>
    <rect x="6" y="9" width="3" height="9"/>
    <rect x="11" y="9" width="3" height="9"/>
  </symbol>

</svg>
