<svg xmlns="http://www.w3.org/2000/svg" style="display:none">

  <symbol id="icon-instagram" viewBox="0 0 24 24">
    <path d="M7 2h10a5 5 0 0 1 5 5v10a5 5 0 0 1-5 5H7a5 5 0 0 1-5-5V7a5 5 0 0 1 5-5zm10 2H7a3 3 0 0 0-3 3v10a3 3 0 0 0 3 3h10a3 3 0 0 0 3-3V7a3 3 0 0 0-3-3zm-5 3a5 5 0 1 1 0 10 5 5 0 0 1 0-10zm0 2.2a2.8 2.8 0 1 0 0 5.6 2.8 2.8 0 0 0 0-5.6zM18 6.5a1.3 1.3 0 1 1-2.6 0 1.3 1.3 0 0 1 2.6 0z"/>
  </symbol>

  <symbol id="icon-twitter" viewBox="0 0 24 24">
    <path d="M23 3a10.9 10.9 0 0 1-3.14 1.53A4.48 4.48 0 0 0 12 8.09v1A10.66 10.66 0 0 1 3 4s-4 9 5 13a11.64 11.64 0 0 1-7 2c9 5 20 0 20-11.5a4.5 4.5 0 0 0-.08-.83A7.72 7.72 0 0 0 23 3z"/>
  </symbol>

  <symbol id="icon-facebook" viewBox="0 0 24 24">
    <path d="M18 2h-3a5 5 0 0 0-5 5v3H7v4h3v8h4v-8h3.28L18 10h-4V7a1 1 0 0 1 1-1h3z"/>
  </symbol>

  <symbol id="icon-linkedin" viewBox="0 0 24 24">
    <path d="M4 3a2 2 0 1 1 0 4 2 2 0 0 1 0-4zm-2 6h4v12H2zM9 9h4v1.7h.1a4.4 4.4 0 0 1 4-2.2c4.3 0 5.1 2.8 5.1 6.5V21h-4v-5.2c0-1.2 0-2.8-1.7-2.8s-2 1.3-2 2.7V21H9z"/>
  </symbol>

</svg>
