<svg xmlns="http://www.w3.org/2000/svg" style="display:none">

  <!-- FEATURES -->
  <symbol id="icon-antenna" viewBox="0 0 64 64">
    <path d="M32 4a28 28 0 0 0-9.9 54.2l2.3-6.3A21.9 21.9 0 0 1 32 10a21.9 21.9 0 0 1 7.6 41.9l2.3 6.3A28 28 0 0 0 32 4z"/>
  </symbol>

  <symbol id="icon-clock" viewBox="0 0 64 64">
    <path d="M32 6a26 26 0 1 0 26 26A26 26 0 0 0 32 6zm2 28h14v-4H34V14h-4v20z"/>
  </symbol>

  <symbol id="icon-diagram" viewBox="0 0 64 64">
    <path d="M8 56h8V32H8zm20 0h8V16h-8zm20 0h8V8h-8z"/>
  </symbol>

  <symbol id="icon-astronaut" viewBox="0 0 64 64">
    <circle cx="32" cy="24" r="14"/>
    <path d="M16 52h32v-6a16 16 0 0 0-32 0z"/>
  </symbol>

  <!-- SOCIAL -->
  <symbol id="icon-instagram" viewBox="0 0 24 24">
    <path d="M7 2h10a5 5 0 0 1 5 5v10a5 5 0 0 1-5 5H7a5 5 0 0 1-5-5V7a5 5 0 0 1 5-5zm5 5a5 5 0 1 0 5 5 5 5 0 0 0-5-5z"/>
  </symbol>

  <symbol id="icon-twitter" viewBox="0 0 24 24">
    <path d="M22 5.8a8.4 8.4 0 0 1-2.4.7 4.2 4.2 0 0 0 1.8-2.3 8.3 8.3 0 0 1-2.6 1 4.1 4.1 0 0 0-7 3.7A11.6 11.6 0 0 1 3 4.9a4.1 4.1 0 0 0 1.3 5.5 4 4 0 0 1-1.9-.5v.1a4.1 4.1 0 0 0 3.3 4 4 4 0 0 1-1.9.1 4.1 4.1 0 0 0 3.8 2.8A8.3 8.3 0 0 1 2 18.4 11.7 11.7 0 0 0 8.3 20c7.6 0 11.7-6.3 11.7-11.7v-.5A8.4 8.4 0 0 0 22 5.8z"/>
  </symbol>

  <symbol id="icon-facebook" viewBox="0 0 24 24">
    <path d="M14 9h3V6h-3c-2.2 0-4 1.8-4 4v2H7v3h3v7h3v-7h3l1-3h-4v-2c0-.6.4-1 1-1z"/>
  </symbol>

  <symbol id="icon-linkedin" viewBox="0 0 24 24">
    <path d="M4 3a2 2 0 1 0 0 4 2 2 0 0 0 0-4zm-2 18h4V8H2zm7-13h4v2h.1a4.4 4.4 0 0 1 4-2.2c4.3 0 5.1 2.8 5.1 6.4V21h-4v-5.8c0-1.4 0-3.2-2-3.2s-2.3 1.5-2.3 3.1V21H9z"/>
  </symbol>

</svg>
