<svg xmlns="http://www.w3.org/2000/svg" style="display: none">

  <!-- FEATURES -->
  <symbol id="icon-antenna" viewBox="0 0 64 64">
    <path d="M32 6c-9.94 0-18 8.06-18 18h4c0-7.73 6.27-14 14-14s14 6.27 14 14h4c0-9.94-8.06-18-18-18z"/>
    <path d="M32 18c-3.31 0-6 2.69-6 6h4a2 2 0 114 0h4c0-3.31-2.69-6-6-6z"/>
    <circle cx="32" cy="30" r="4"/>
    <path d="M30 34h4v24h-4z"/>
  </symbol>

  <symbol id="icon-clock" viewBox="0 0 64 64">
    <circle cx="32" cy="32" r="28" fill="none" stroke="currentColor" stroke-width="4"/>
    <path d="M32 16v18l12 6" fill="none" stroke="currentColor" stroke-width="4"/>
  </symbol>

  <symbol id="icon-diagram" viewBox="0 0 64 64">
    <rect x="6" y="30" width="12" height="28"/>
    <rect x="26" y="18" width="12" height="40"/>
    <rect x="46" y="6" width="12" height="52"/>
  </symbol>

  <symbol id="icon-astronaut" viewBox="0 0 64 64">
    <circle cx="32" cy="24" r="14"/>
    <rect x="18" y="38" width="28" height="20" rx="4"/>
  </symbol>

  <!-- SOCIAL -->
  <symbol id="icon-instagram" viewBox="0 0 24 24">
    <rect x="2" y="2" width="20" height="20" rx="5" ry="5"/>
    <circle cx="12" cy="12" r="4"/>
    <circle cx="17" cy="7" r="1.5"/>
  </symbol>

  <symbol id="icon-twitter" viewBox="0 0 24 24">
    <path d="M23 3a10.9 10.9 0 01-3.14 1.53A4.48 4.48 0 0016 3a4.48 4.48 0 00-4.47 4.48c0 .35.04.7.11 1.03A12.94 12.94 0 013 4s-4 9 5 13a13.07 13.07 0 01-7 2c9 5 20 0 20-11.5a4.5 4.5 0 00-.08-.83A7.72 7.72 0 0023 3z"/>
  </symbol>

  <symbol id="icon-facebook" viewBox="0 0 24 24">
    <path d="M18 2h-3a5 5 0 00-5 5v3H7v4h3v8h4v-8h3l1-4h-4V7a1 1 0 011-1h3z"/>
  </symbol>

  <symbol id="icon-linkedin" viewBox="0 0 24 24">
    <rect x="2" y="2" width="20" height="20" rx="2"/>
    <rect x="6" y="9" width="3" height="9"/>
    <circle cx="7.5" cy="6.5" r="1.5"/>
    <path d="M13 9h3v1.5c.5-.9 1.7-1.5 3-1.5 3 0 4 2 4 5v4h-4v-4c0-1 0-2-1.5-2s-1.5 1-1.5 2v4h-4z"/>
  </symbol>

</svg>
