<svg xmlns="http://www.w3.org/2000/svg" style="display:none">

  <!-- FEATURES -->
  <symbol id="icon-antenna" viewBox="0 0 64 64">
    <path d="M32 4a28 28 0 0 0-9.9 54.2l2.4-6.6a21 21 0 1 1 15 0l2.4 6.6A28 28 0 0 0 32 4z"/>
  </symbol>

  <symbol id="icon-clock" viewBox="0 0 64 64">
    <circle cx="32" cy="32" r="28" fill="none" stroke="currentColor" stroke-width="4"/>
    <path d="M32 16v18l12 6" stroke="currentColor" stroke-width="4" fill="none"/>
  </symbol>

  <symbol id="icon-diagram" viewBox="0 0 64 64">
    <rect x="10" y="30" width="10" height="24"/>
    <rect x="27" y="20" width="10" height="34"/>
    <rect x="44" y="10" width="10" height="44"/>
  </symbol>

  <symbol id="icon-astronaut" viewBox="0 0 64 64">
    <circle cx="32" cy="24" r="12"/>
    <rect x="18" y="38" width="28" height="18"/>
  </symbol>

  <!-- SOCIAL -->
  <symbol id="icon-instagram" viewBox="0 0 24 24">
    <rect x="2" y="2" width="20" height="20" rx="5"/>
    <circle cx="12" cy="12" r="5"/>
  </symbol>

  <symbol id="icon-twitter" viewBox="0 0 24 24">
    <path d="M24 4.6a10 10 0 0 1-2.8.8A5 5 0 0 0 23.3 3a10 10 0 0 1-3.1 1.2A5 5 0 0 0 12 8.6a14 14 0 0 1-10-5 5 5 0 0 0 1.5 6.7A5 5 0 0 1 1 9.7v.1a5 5 0 0 0 4 4.9 5 5 0 0 1-2.2.1 5 5 0 0 0 4.7 3.5A10 10 0 0 1 0 20a14 14 0 0 0 7.5 2.2"/>
  </symbol>

  <symbol id="icon-facebook" viewBox="0 0 24 24">
    <path d="M14 9h3V5h-3c-3 0-5 2-5 5v3H6v4h3v7h4v-7h3l1-4h-4v-3c0-1 .4-1 1-1z"/>
  </symbol>

  <symbol id="icon-linkedin" viewBox="0 0 24 24">
    <rect x="2" y="2" width="20" height="20"/>
    <rect x="6" y="9" width="2" height="9"/>
    <rect x="11" y="9" width="2" height="9"/>
  </symbol>

</svg>
