<svg xmlns="http://www.w3.org/2000/svg" width="75" height="32" viewBox="0 0 75 32"><path fill="#f4f4fd" d="M1.143.143h73.143a1 1 0 0 1 1 1v29.714a1 1 0 0 1-1 1H1.143a1 1 0 0 1-1-1V1.143a1 1 0 0 1 1-1"/><path fill="#2e2f42" d="m46.156 19.484-4.825-4.86.535-2.637q.209.081.433.083h.004a1.234 1.234 0 1 0-1.148-.82l-2.834.346-4.623-4.647a.3.3 0 0 0-.428-.002l-.864.859a.305.305 0 0 0 0 .431l.465.472a8.54 8.54 0 0 0 1.44 10.093.3.3 0 0 0 .083.056 2 2 0 0 0-.03.313v3.535h-3.657a1.526 1.526 0 0 0-1.524 1.524v.61c0 .168.137.305.305.305h14.019a.305.305 0 0 0 .305-.305v-.61a1.526 1.526 0 0 0-1.524-1.524h-3.657v-1.567c.573.12 1.157.181 1.742.183a8.5 8.5 0 0 0 4.023-1.019l.467.47a.3.3 0 0 0 .428.002l.864-.859a.305.305 0 0 0 0-.431zm-4.282-9.065a.61.61 0 1 1 .429 1.041h-.002a.609.609 0 0 1-.426-1.042zm-.717 2.002-.342 1.683-.672-.676 1.014-1.008zm-.346-.515-1.097 1.091-.849-.853zm1.477 11.408c.505 0 .914.409.914.914v.305H29.793v-.305c0-.505.409-.914.914-.914zm-4.267-1.219v.61h-3.048v-.61zm-3.047-.609V19.17c0-.739.684-1.341 1.524-1.341s1.524.602 1.524 1.341v2.316zm3.657-.969V19.17c0-1.075-.957-1.95-2.133-1.95a2.17 2.17 0 0 0-1.875 1.021 7.92 7.92 0 0 1-1.302-9.078l10.63 10.691a7.9 7.9 0 0 1-5.319.665zm6.451-.391L33.049 8.023l.431-.43 4.534 4.56q.002.002.006.005l7.494 7.538-.433.43z"/><path fill="#4d5ae5" d="M36.5 18.438h-.003a.915.915 0 0 0-.002 1.829h.003a.915.915 0 0 0 .003-1.829zm.214 1.13a.305.305 0 1 1-.216-.521.304.304 0 0 1 .213.521z"/></svg>