<svg xmlns="http://www.w3.org/2000/svg" width="75" height="32" viewBox="0 0 75 32"><path fill="#f4f4fd" d="M1.143.143h73.143a1 1 0 0 1 1 1v29.714a1 1 0 0 1-1 1H1.143a1 1 0 0 1-1-1V1.143a1 1 0 0 1 1-1"/><path fill="#4d5ae5" d="M46.842 9.442a.3.3 0 0 0-.246-.207l-1.091-.159-.489-.989c-.103-.208-.444-.208-.547 0l-.489.989-1.092.159a.305.305 0 0 0-.169.519l.79.77-.187 1.087a.306.306 0 0 0 .442.321l.977-.514.977.514a.31.31 0 0 0 .321-.023.3.3 0 0 0 .121-.298l-.186-1.087.79-.77a.3.3 0 0 0 .077-.312zm-1.407.759a.3.3 0 0 0-.087.27l.109.637-.572-.3q-.068-.035-.142-.035c-.074 0-.097.012-.142.035l-.572.3.109-.637a.3.3 0 0 0-.087-.27l-.463-.451.639-.093a.3.3 0 0 0 .229-.167l.286-.579.286.579c.045.09.13.152.23.167l.639.093zM43.505 18.584h-.609v.61h.609zM43.505 19.803h-.609v.61h.609z"/><path fill="#4d5ae5" d="M44.114 19.194h-.609v.61h.609zM42.895 19.194h-.61v.61h.61zM41.371 21.937h-.609v.61h.609zM41.371 23.156h-.609v.61h.609zM41.981 22.546h-.61v.61h.61zM40.762 22.546h-.61v.61h.61zM37.714 20.718h-.609v.61h.609zM37.714 21.937h-.609v.61h.609zM38.324 21.327h-.609v.61h.609zM37.105 21.327h-.61v.61h.61zM31.924 10.355h-.609v.61h.609zM31.924 11.575h-.609v.61h.609zM32.533 10.965h-.609v.61h.609zM31.314 10.965h-.61v.61h.61z"/><path fill="#2e2f42" d="M42.694 14.948a1.01 1.01 0 0 0-.679-.403 1.02 1.02 0 0 0-.766.201l-.715.549-1.085.81-.776-.309a3.97 3.97 0 0 0 2.351-3.611c0-2.185-1.784-3.962-3.978-3.962S33.068 10 33.068 12.185c0 .792.237 1.528.64 2.148l-1.579-.014h-.003q-.007 0-.013.003a.3.3 0 0 0-.089.018q-.011.003-.022.008l-.011.004-1.847.912h-.001l-1.082.52-.036.02a1.018 1.018 0 0 0 1.048 1.746l.793-.422 1.294-.668.775-.005-3.11 3.095-.001.001-.765.762c-.181.18-.28.418-.28.673s.099.493.28.674a.96.96 0 0 0 1.349 0l.751-.748.995-.743.515.513-1.007 1.002-.001.001-.765.762c-.181.18-.28.418-.28.673s.099.493.28.674a.955.955 0 0 0 1.348 0l1.99-1.981.001-.001.577-.571-.002-.002q.006-.005.013-.009l2.952-3.233 1.983.282.043.003a.3.3 0 0 0 .107-.022l.028-.013q.017-.008.033-.015l1.836-1.219c.007-.005.01-.012.017-.017s.016-.008.023-.015l.727-.681c.378-.354.43-.934.121-1.35zm-12.905 2.064a.4.4 0 0 1-.319.03.41.41 0 0 1-.122-.719l.751-.361.181.528.076.222zm1.998-1.045-.885.457-.251-.733 1.158-.572-.023.848zm8.628-3.783c0 .525-.125 1.02-.342 1.463l-2.389-1.085a1.06 1.06 0 0 0-.45-.793l.837-2.777a3.36 3.36 0 0 1 2.345 3.193zm-6.736 0c0-1.848 1.511-3.352 3.368-3.352q.217.001.426.03l-.818 2.716q-.016-.002-.033-.003c-.59 0-1.07.479-1.07 1.067s.48 1.067 1.07 1.067c.397 0 .74-.219.925-.54l2.207 1.003a3.369 3.369 0 0 1-6.075-1.986zm3.404.457c0 .252-.207.457-.461.457s-.461-.205-.461-.457.207-.457.461-.457a.46.46 0 0 1 .461.457m-7.103 8.585a.346.346 0 0 1-.589-.242c0-.091.036-.177.101-.241l.55-.548.486.484zm1.836 2.134a.346.346 0 0 1-.589-.242c0-.091.035-.176.101-.241l.55-.548.487.484-.548.546zm1.99-1.982-.001.001-1.009 1.006-.487-.484 1.008-1.003.001-.001c.023-.023.037-.05.051-.077.004-.008.012-.015.015-.023.009-.023.011-.049.015-.073.002-.014.008-.027.008-.041 0-.02-.007-.04-.012-.06-.004-.018-.004-.037-.011-.055a.3.3 0 0 0-.052-.079q-.007-.011-.014-.022l-.001-.001-.918-.914c-.01-.01-.022-.014-.033-.022q-.023-.019-.05-.033c-.027-.014-.035-.014-.053-.019a.2.2 0 0 0-.059-.011q-.027 0-.055.003-.03.002-.059.012c-.029.01-.036.016-.054.026q-.017.007-.035.016l-1.013.756-.515-.513 1.371-1.363 2.492 2.451-.53.525zm3.896-4.01q-.013 0-.026.002a.3.3 0 0 0-.066.004q-.026.004-.05.012a.3.3 0 0 0-.102.062q-.011.007-.023.017l-2.685 2.94-2.473-2.432 1.619-1.61a.305.305 0 0 0-.217-.52l-1.268.008.016-.919 1.774.015a3.97 3.97 0 0 0 3.578 1.13q.033.029.074.049l1.377.549.087.433.102.506-1.716-.244zm2.31.102-.179-.89.827-.617.217.287.325.431zm2.145-1.618-.479.449-.532-.706.475-.364a.414.414 0 0 1 .585.08.407.407 0 0 1-.049.541"/><path fill="#2e2f42" d="m36.344 17.454-1.225-1.219a.304.304 0 0 0-.43 0l-1.224 1.219a.31.31 0 0 0 0 .432l1.224 1.219a.304.304 0 0 0 .43 0l1.225-1.219a.307.307 0 0 0 0-.432m-1.439 1.005-.792-.789.792-.789.793.789zM38.38 9.755l-.147.592c.041.01.993.258.993 1.228h.609c0-1.153-.952-1.695-1.455-1.82M39.835 12.184h-.609v.61h.609z"/></svg>